<svg width="20" height="21" viewBox="0 0 20 21" fill="none" xmlns="http://www.w3.org/2000/svg">
<path d="M15.125 7.16602V8.36349C15.0432 8.35777 14.9598 8.35286 14.875 8.3487V7.16602C14.875 5.83099 14.6924 4.58182 13.9337 3.67359C13.1579 2.74485 11.8854 2.29102 10 2.29102C8.11455 2.29102 6.84211 2.74485 6.06627 3.67359C5.30756 4.58182 5.125 5.83099 5.125 7.16602V8.3487C5.04017 8.35286 4.95683 8.35777 4.875 8.36349V7.16602C4.875 5.9789 5.02312 4.70632 5.70595 3.73477C6.36327 2.79953 7.59282 2.04102 10 2.04102C12.4072 2.04102 13.6367 2.79953 14.2941 3.73477C14.9769 4.70632 15.125 5.9789 15.125 7.16602Z" stroke="currentColor" 
    stroke-width="2" 
    stroke-linecap="round" 
    stroke-linejoin="round"/>
<path d="M15.5433 9.51182L15.5433 9.51188L15.5519 9.51293C16.5289 9.6317 16.9964 9.90957 17.2706 10.3364C17.58 10.8181 17.7327 11.6163 17.7327 13.0007V14.6673C17.7327 16.3383 17.5093 17.1422 17.0751 17.5764C16.6409 18.0106 15.837 18.234 14.166 18.234H5.83268C4.16173 18.234 3.35781 18.0106 2.92361 17.5764C2.48942 17.1422 2.26602 16.3383 2.26602 14.6673V13.0007C2.26602 11.6163 2.41874 10.8181 2.72815 10.3364C3.00226 9.90957 3.46979 9.6317 4.44676 9.51293L4.44676 9.513L4.45542 9.51182C4.78903 9.46632 5.17849 9.44218 5.62975 9.43398H14.3689C14.8202 9.44218 15.2097 9.46632 15.5433 9.51182ZM7.67033 14.8612L7.6821 14.8501L7.69325 14.8383C7.94166 14.5761 8.09935 14.2143 8.09935 13.834C8.09935 13.6346 8.05377 13.4479 7.98653 13.2865C7.91789 13.1218 7.82239 12.9729 7.70366 12.8409L7.6931 12.8292L7.68195 12.8181C7.28089 12.417 6.65859 12.2855 6.12253 12.5118C5.9324 12.5868 5.79081 12.6903 5.67297 12.7963L5.6495 12.8175L5.62837 12.8409C5.50964 12.9729 5.41414 13.1218 5.3455 13.2865C5.27826 13.4479 5.23268 13.6346 5.23268 13.834C5.23268 14.2143 5.39037 14.5761 5.63878 14.8383L5.65521 14.8556L5.67297 14.8716C5.79155 14.9783 5.93418 15.0825 6.12613 15.1576C6.28577 15.2231 6.46976 15.2673 6.66602 15.2673C7.04633 15.2673 7.40812 15.1096 7.67033 14.8612ZM11.0037 14.8612L11.021 14.8448L11.037 14.827C11.1557 14.6951 11.2512 14.5461 11.3199 14.3814C11.3871 14.22 11.4327 14.0333 11.4327 13.834C11.4327 13.4423 11.2727 13.0895 11.0266 12.8297L11.0183 12.8209L11.0096 12.8124C10.4631 12.2804 9.52914 12.2723 8.98342 12.8181L8.97769 12.8238L8.97211 12.8297C8.72595 13.0895 8.56602 13.4423 8.56602 13.834C8.56602 14.0333 8.6116 14.22 8.67884 14.3814C8.74747 14.5461 8.84298 14.6951 8.96171 14.827L8.97769 14.8448L8.99504 14.8612C9.25487 15.1074 9.60766 15.2673 9.99935 15.2673C10.3797 15.2673 10.7415 15.1096 11.0037 14.8612ZM14.337 14.8612L14.3488 14.8501L14.3599 14.8383C14.6083 14.5761 14.766 14.2143 14.766 13.834C14.766 13.7395 14.752 13.6427 14.7448 13.5926C14.7443 13.589 14.7438 13.5856 14.7433 13.5825L14.7435 13.5824L14.7412 13.5687C14.7245 13.4685 14.6941 13.3742 14.654 13.2866C14.6221 13.2019 14.576 13.1107 14.5109 13.0241C14.4674 12.9607 14.4256 12.9084 14.3964 12.8719L14.3929 12.8675L14.3721 12.8416L14.3486 12.8181C13.8029 12.2723 12.8689 12.2804 12.3224 12.8124L12.3138 12.8209L12.3054 12.8297C12.0593 13.0895 11.8993 13.4423 11.8993 13.834C11.8993 14.2257 12.0593 14.5785 12.3054 14.8383L12.3166 14.8501L12.3284 14.8612C12.5906 15.1096 12.9524 15.2673 13.3327 15.2673C13.713 15.2673 14.0748 15.1096 14.337 14.8612Z"  stroke="currentColor" 
    stroke-width="1.2" 
    stroke-linecap="round" 
    stroke-linejoin="round"/>
</svg>
