<svg width="28" height="29" viewBox="0 0 28 29" fill="none" xmlns="http://www.w3.org/2000/svg">
<path d="M4.59776 22.6676H8.06158V14.2556L5.79342 10.2949L3.11328 10.5443V21.1831C3.11328 22.0033 3.7776 22.6676 4.59776 22.6676Z" fill="#0085F7"/>
<path d="M19.9375 22.6676H23.4013C24.2215 22.6676 24.8858 22.0033 24.8858 21.1831V10.5443L22.2095 10.2949L19.9375 14.2556V22.6676H19.9375Z" fill="#00A94B"/>
<path d="M19.937 7.82246L17.9023 11.7051L19.937 14.2552L24.8853 10.544V8.56472C24.8853 6.73013 22.7909 5.68234 21.3225 6.78333L19.937 7.82246Z" fill="#FFBC00"/>
<path fill-rule="evenodd" clip-rule="evenodd" d="M8.06186 14.255L6.12305 10.1595L8.06186 7.82227L13.9998 12.2757L19.9377 7.82227V14.255L13.9998 18.7085L8.06186 14.255Z" fill="#FF4131"/>
<path d="M3.11328 8.56472V10.544L8.06158 14.2552V7.82246L6.67605 6.78333C5.20765 5.68234 3.11328 6.73013 3.11328 8.56472Z" fill="#E51C19"/>
</svg>
