<svg width="20" height="21" viewBox="0 0 20 21" fill="none" xmlns="http://www.w3.org/2000/svg">
<path d="M9.15517 14.2691L8.65929 14.7649L7.31241 16.1118C7.13787 16.2864 7.21057 16.5789 7.41395 16.6585C8.24958 16.9785 9.11362 17.1416 10.0005 17.1416C11.3834 17.1416 12.7351 16.7382 13.9796 15.9745C15.2486 15.1859 16.4043 14.0189 17.3433 12.518L17.344 12.517C17.6752 11.9905 17.8497 11.2487 17.8401 10.4728C17.8306 9.69771 17.638 8.94993 17.3026 8.41657L9.15517 14.2691ZM9.15517 14.2691C9.71981 14.4024 10.3395 14.4032 10.9721 14.2432C12.326 13.9067 13.4156 12.8171 13.7522 11.4632C13.9121 10.8306 13.9114 10.2109 13.778 9.64623L16.0707 7.35347C16.2089 7.21534 16.4429 7.22788 16.566 7.3842L16.566 7.38421L16.5684 7.38727C16.8243 7.70713 17.0716 8.05024 17.3025 8.41652L9.15517 14.2691Z" fill="#454545" stroke="#454545"/>
<path d="M10.0005 8.61719C10.3315 8.61719 10.6494 8.7087 10.927 8.86691L8.36691 11.427C8.2087 11.1494 8.11719 10.8315 8.11719 10.5005C8.11719 9.46719 8.96113 8.61719 10.0005 8.61719Z" fill="#454545" stroke="#454545"/>
<path d="M15.2077 5.29076L12.3827 8.11576C11.7743 7.49909 10.9327 7.13242 9.99935 7.13242C8.13268 7.13242 6.63268 8.64075 6.63268 10.4991C6.63268 11.4324 7.00768 12.2741 7.61602 12.8824L4.79935 15.7074H4.79102C3.86602 14.9574 3.01602 13.9991 2.29102 12.8658C1.45768 11.5574 1.45768 9.43242 2.29102 8.12409C3.25768 6.60742 4.44102 5.41576 5.75768 4.59909C7.07435 3.79909 8.51602 3.35742 9.99935 3.35742C11.8577 3.35742 13.6577 4.04076 15.2077 5.29076Z" fill="#454545"/>
<path d="M12.3824 10.4991C12.3824 11.8074 11.3158 12.8824 9.99909 12.8824C9.94909 12.8824 9.90742 12.8824 9.85742 12.8658L12.3658 10.3574C12.3824 10.4074 12.3824 10.4491 12.3824 10.4991Z" fill="#454545"/>
<path d="M18.1408 2.35742C17.8908 2.10742 17.4824 2.10742 17.2324 2.35742L1.85742 17.7408C1.60742 17.9908 1.60742 18.3991 1.85742 18.6491C1.98242 18.7658 2.14076 18.8324 2.30742 18.8324C2.47409 18.8324 2.63242 18.7658 2.75742 18.6408L18.1408 3.25742C18.3991 3.00742 18.3991 2.60742 18.1408 2.35742Z" fill="#454545"/>
</svg>
