<svg width="28" height="28" viewBox="0 0 28 28" fill="none" xmlns="http://www.w3.org/2000/svg">
<path d="M24.3792 25.6662H3.61668C3.39903 25.6662 3.29799 25.3961 3.46224 25.2533L8.37213 20.9827C8.4578 20.9082 8.5675 20.8672 8.68102 20.8672H19.3149C19.4284 20.8672 19.5381 20.9082 19.6238 20.9827L24.5337 25.2533C24.6979 25.3961 24.5969 25.6662 24.3792 25.6662Z" fill="#BCEA73"/>
<path d="M13.9984 23.5597C16.1096 23.5597 17.8211 23.2722 17.8211 22.9176C17.8211 22.5629 16.1096 22.2754 13.9984 22.2754C11.8872 22.2754 10.1758 22.5629 10.1758 22.9176C10.1758 23.2722 11.8872 23.5597 13.9984 23.5597Z" fill="#A3E440"/>
<path d="M12.2383 20.8672H13.9974V25.6662H12.2383V20.8672Z" fill="#F8F3F1"/>
<path d="M13.9974 22.2754V23.5594C13.3632 23.5594 12.7651 23.5336 12.2383 23.4876V22.3472C12.765 22.3012 13.3632 22.2754 13.9974 22.2754Z" fill="#EFE2DD"/>
<path d="M10.6689 20.8672V25.6662H7.49609V21.7456L8.3731 20.9827C8.45855 20.9081 8.56842 20.8672 8.68204 20.8672H10.6689V20.8672Z" fill="#B9ACAC"/>
<path d="M10.6683 22.6016V23.2326C10.3547 23.1391 10.1758 23.0316 10.1758 22.9171C10.1758 22.8025 10.3547 22.6945 10.6683 22.6016Z" fill="#9E9797"/>
<path d="M24.3778 25.6663H22.2281C22.4461 25.6663 22.5468 25.3966 22.3825 25.2535L17.4728 20.983C17.3871 20.9086 17.2775 20.8672 17.1641 20.8672H19.3132C19.4266 20.8672 19.5363 20.9086 19.6219 20.983L24.5321 25.2535C24.6964 25.3966 24.5952 25.6663 24.3778 25.6663Z" fill="#A3E440"/>
<path d="M19.9751 21.2891C19.6396 21.6247 16.7243 24.5426 15.6035 25.6673H18.8508C19.8078 24.7146 20.7627 23.7598 21.7145 22.8019L19.9751 21.2891Z" fill="#F8F3F1"/>
<path d="M21.7137 22.8019L19.9743 21.2891C19.6411 21.6223 19.3078 21.9556 18.9746 22.2889L20.7157 23.8034C21.0486 23.4697 21.3815 23.1362 21.7137 22.8019Z" fill="#EFE2DD"/>
<path d="M20.504 11.1221C20.504 7.51388 17.5661 4.59179 13.9519 4.61735C10.4081 4.64242 7.51559 7.53821 7.49426 11.082C7.48264 13.0077 8.30797 14.7408 9.6278 15.939C11.6057 17.7347 13.0025 20.08 13.6737 22.6658C13.7608 23.0014 14.2373 23.0014 14.3244 22.6658L14.3245 22.6656C14.9997 20.0645 16.4282 17.7279 18.405 15.9073C19.6955 14.7187 20.504 13.0149 20.504 11.1221Z" fill="#31A7FB"/>
<path d="M10.3787 7.15161C10.3787 7.79059 9.8609 8.30793 9.22192 8.30793C8.87356 8.30793 8.56134 8.15394 8.34961 7.91026C8.73128 7.24312 9.22707 6.64921 9.81063 6.15625C10.1506 6.35723 10.3787 6.72814 10.3787 7.15161Z" fill="#1C96F9"/>
<path d="M20.5034 11.1218C20.5034 13.0149 19.6952 14.7187 18.4046 15.9072C16.4278 17.7278 14.9992 20.0643 14.3238 22.6653V22.6658C14.2805 22.8338 14.1393 22.9176 13.9985 22.9176C13.8578 22.9176 13.7166 22.8339 13.6733 22.6658C13.5076 22.0271 13.2972 21.403 13.0449 20.7981C13.8244 18.9464 15.0035 17.2802 16.4941 15.9072C17.7843 14.7187 18.5929 13.0149 18.5929 11.1218C18.5929 7.85427 16.1844 5.1497 13.0454 4.68749C13.3414 4.64324 13.6441 4.61973 13.9515 4.61736C17.5658 4.59147 20.5034 7.51347 20.5034 11.1218Z" fill="#1C96F9"/>
<path d="M13.999 14.1054C15.6466 14.1054 16.9823 12.7697 16.9823 11.122C16.9823 9.47436 15.6466 8.13867 13.999 8.13867C12.3513 8.13867 11.0156 9.47436 11.0156 11.122C11.0156 12.7697 12.3513 14.1054 13.999 14.1054Z" fill="#EAF9FA"/>
<path d="M16.9822 11.1219C16.9822 12.7697 15.6468 14.1055 13.999 14.1055C13.6987 14.1055 13.4082 14.0613 13.1348 13.978C14.3609 13.608 15.2538 12.469 15.2538 11.1219C15.2538 9.77479 14.3609 8.63619 13.1348 8.26577C13.4082 8.18292 13.6986 8.13867 13.999 8.13867C15.6468 8.13867 16.9822 9.47451 16.9822 11.1219Z" fill="#D4F2F6"/>
<path d="M21.6991 9.50824C21.6198 9.33078 21.4113 9.25098 21.2338 9.33078C20.9813 9.44344 20.6972 9.55377 20.3897 9.658C20.3728 9.66365 20.3568 9.67021 20.3418 9.67818C20.3906 9.89507 20.4291 10.1157 20.4559 10.3402C20.4714 10.3425 20.4869 10.3435 20.5024 10.3435C20.5399 10.3435 20.578 10.3374 20.6155 10.3251C20.9437 10.2138 21.2488 10.0955 21.5216 9.9735C21.6991 9.89365 21.7784 9.6857 21.6991 9.50824ZM23.3667 7.91857C23.1982 7.82232 22.9831 7.88056 22.8864 8.04955C22.7639 8.2641 22.5855 8.46973 22.3568 8.66036C22.2076 8.78523 22.1874 9.00731 22.3118 9.1566C22.3817 9.24018 22.4817 9.28289 22.5827 9.28289C22.662 9.28289 22.7418 9.25613 22.808 9.20117C23.101 8.95658 23.3334 8.68661 23.4977 8.39932C23.5944 8.23029 23.5357 8.01527 23.3667 7.91857ZM23.7958 6.83029C23.762 6.48571 23.6798 6.14719 23.5503 5.82468C23.478 5.64393 23.2733 5.55662 23.0925 5.62889C22.9122 5.70117 22.8245 5.90589 22.8968 6.08663C23.001 6.34717 23.0677 6.62042 23.0949 6.89883C23.1127 7.08053 23.2658 7.21665 23.4451 7.21665C23.4563 7.21665 23.4681 7.2162 23.4794 7.21524C23.6728 7.19601 23.8146 7.0242 23.7958 6.83029Z" fill="#BCEA73"/>
<path d="M12.3955 18.0794C12.0777 18.0925 11.765 18.1006 11.4673 18.1038C11.2725 18.1057 11.1167 18.2654 11.119 18.4597C11.1208 18.6527 11.2781 18.8081 11.4706 18.8081H11.4744C11.7795 18.8048 12.0997 18.7963 12.4251 18.7827C12.6194 18.7748 12.7701 18.6109 12.7622 18.4166C12.7542 18.2222 12.5908 18.0705 12.3955 18.0794ZM10.0801 18.0785C9.76031 18.0621 9.45188 18.0381 9.16363 18.0071C8.97022 17.9865 8.79649 18.1264 8.77585 18.3194C8.7552 18.5128 8.89511 18.6865 9.08852 18.7071C9.38994 18.7395 9.71155 18.7649 10.0444 18.7818C10.0505 18.7822 10.0566 18.7822 10.0627 18.7822C10.2491 18.7822 10.4045 18.6362 10.4139 18.448C10.4237 18.2536 10.2744 18.0884 10.0801 18.0785ZM15.1035 18.2259C15.0843 18.032 14.9115 17.8912 14.7181 17.9104C14.4026 17.9419 14.0904 17.97 13.7894 17.994C13.5955 18.0095 13.4509 18.179 13.4664 18.3729C13.4809 18.5574 13.6349 18.6973 13.8171 18.6973C13.826 18.6973 13.8354 18.6969 13.8452 18.6959C14.1504 18.672 14.4678 18.6433 14.7884 18.6114C14.9819 18.5917 15.1232 18.4193 15.1035 18.2259ZM7.8195 17.7832C7.50869 17.7081 7.22327 17.6198 6.97162 17.5193C6.79088 17.4475 6.58616 17.5358 6.51434 17.7165C6.44252 17.8973 6.53079 18.102 6.71103 18.1738C6.99413 18.2865 7.3115 18.3851 7.65517 18.4677C7.68287 18.4743 7.71058 18.4775 7.73779 18.4775C7.89647 18.4775 8.04108 18.3691 8.07959 18.2076C8.12511 18.0184 8.00867 17.8283 7.8195 17.7832ZM17.434 17.9254C17.4063 17.7329 17.2279 17.5991 17.0354 17.6268C16.7242 17.6715 16.4129 17.7132 16.1096 17.7517C15.9167 17.7766 15.78 17.9526 15.8049 18.1456C15.8275 18.3235 15.9791 18.4531 16.1537 18.4531C16.1683 18.4531 16.1833 18.4522 16.1984 18.4503C16.5054 18.4113 16.8204 18.3691 17.1354 18.324C17.3279 18.2963 17.4617 18.1179 17.434 17.9254ZM19.7519 17.5391C19.7176 17.3475 19.5345 17.2203 19.3434 17.2545C19.0364 17.3095 18.726 17.3625 18.4218 17.4132C18.2298 17.4447 18.0997 17.6259 18.1316 17.8179C18.1598 17.9902 18.3091 18.1128 18.4786 18.1128C18.4974 18.1128 18.5166 18.1109 18.5363 18.1081C18.8439 18.0569 19.1574 18.0034 19.4673 17.9475C19.6589 17.9133 19.7861 17.7306 19.7519 17.5391ZM22.0566 17.0653C22.0134 16.8761 21.8251 16.7569 21.6354 16.8006C21.6317 16.801 21.2922 16.878 20.7218 16.9931C20.5312 17.0311 20.4077 17.217 20.4458 17.4076C20.4796 17.5747 20.6265 17.6903 20.7909 17.6903C20.8139 17.6903 20.8374 17.6879 20.8608 17.6833C21.4407 17.5668 21.7773 17.4903 21.7913 17.487C21.981 17.4438 22.0998 17.255 22.0566 17.0653ZM5.90963 16.8588C5.71763 16.6621 5.58615 16.4485 5.50777 16.2053C5.44816 16.0203 5.24955 15.9184 5.06457 15.9781C4.87959 16.0382 4.77774 16.2363 4.83735 16.4212C4.94864 16.7658 5.13968 17.0785 5.40587 17.3508C5.47487 17.4213 5.56597 17.4569 5.65752 17.4569C5.74625 17.4569 5.83498 17.4236 5.90352 17.3565C6.04248 17.2207 6.0453 16.9977 5.90963 16.8588ZM5.86032 13.8437C5.71057 13.7189 5.48849 13.7391 5.36408 13.8884C5.12509 14.1752 4.95046 14.4893 4.84482 14.8217C4.78612 15.0071 4.88848 15.2048 5.07392 15.2639C5.10914 15.2752 5.14528 15.2804 5.18046 15.2804C5.32976 15.2804 5.46826 15.1846 5.51615 15.0348C5.59363 14.7897 5.72461 14.5559 5.90489 14.3395C6.02981 14.1902 6.00962 13.9681 5.86032 13.8437ZM7.63452 12.479C7.56926 12.4663 7.49976 12.4724 7.43405 12.5001C7.11057 12.6358 6.81339 12.7809 6.55093 12.9315C6.3824 13.0283 6.32466 13.2438 6.42137 13.4123C6.48663 13.5255 6.60494 13.5888 6.72698 13.5888C6.78659 13.5888 6.8467 13.5738 6.90212 13.5419C7.13873 13.4057 7.40916 13.2738 7.70589 13.1498C7.7397 13.1358 7.77019 13.117 7.79699 13.094C7.73309 12.893 7.67864 12.6879 7.63452 12.479Z" fill="#BCEA73"/>
<path d="M22.1623 4.82666L21.749 5.95358C21.6459 6.23468 21.2501 6.23937 21.1403 5.96083L19.8868 2.77984C19.7824 2.51497 20.0442 2.25311 20.3091 2.35747L23.4901 3.611C23.7687 3.72078 23.7639 4.11663 23.4829 4.21972L22.356 4.63302C22.2661 4.66601 22.1953 4.73679 22.1623 4.82666Z" fill="#70D9E6"/>
<path d="M23.4827 4.21984L23.044 4.3808L20.0535 3.20251L19.8868 2.77978C19.7823 2.51496 20.0441 2.25314 20.3092 2.35746L23.4901 3.61103C23.7687 3.72109 23.7641 4.11671 23.4827 4.21984Z" fill="#22C7DB"/>
<path d="M9.22087 7.15072C9.85953 7.15072 10.3773 6.63297 10.3773 5.9943C10.3773 5.35563 9.85953 4.83789 9.22087 4.83789C8.5822 4.83789 8.06445 5.35563 8.06445 5.9943C8.06445 6.63297 8.5822 7.15072 9.22087 7.15072Z" fill="#BCEA73"/>
<path d="M10.3776 5.99421C10.3776 6.6331 9.85972 7.15099 9.22133 7.15099C9.00732 7.15099 8.80648 7.09284 8.63477 6.99085C9.08872 6.88621 9.42691 6.47984 9.42691 5.99417C9.42691 5.50904 9.08922 5.10212 8.63531 4.99749C8.80708 4.896 9.00732 4.83789 9.22138 4.83789C9.85972 4.83794 10.3776 5.35583 10.3776 5.99421Z" fill="#99D53B"/>
<path d="M23.4611 15.262C24.0998 15.262 24.6175 14.7443 24.6175 14.1056C24.6175 13.467 24.0998 12.9492 23.4611 12.9492C22.8224 12.9492 22.3047 13.467 22.3047 14.1056C22.3047 14.7443 22.8224 15.262 23.4611 15.262Z" fill="#BCEA73"/>
<path d="M24.6178 14.1055C24.6178 14.7444 24.1 15.2623 23.4616 15.2623C23.2476 15.2623 23.0467 15.2042 22.875 15.1022C23.329 14.9975 23.6671 14.5912 23.6671 14.1055C23.6671 13.6204 23.3295 13.2135 22.8755 13.1088C23.0473 13.0073 23.2476 12.9492 23.4616 12.9492C24.1 12.9493 24.6178 13.4672 24.6178 14.1055Z" fill="#99D53B"/>
<path d="M23.3746 19.8082L23.5622 19.6206C23.6997 19.4831 23.6997 19.2602 23.5622 19.1227C23.4247 18.9852 23.2017 18.9852 23.0642 19.1227L22.8766 19.3102L22.689 19.1227C22.5515 18.9851 22.3286 18.9852 22.191 19.1227C22.0535 19.2602 22.0535 19.4831 22.191 19.6206L22.3786 19.8082L22.191 19.9958C22.0535 20.1333 22.0535 20.3562 22.191 20.4938C22.2598 20.5625 22.3499 20.5969 22.44 20.5969C22.5301 20.5969 22.6203 20.5625 22.689 20.4938L22.8766 20.3062L23.0641 20.4938C23.1329 20.5625 23.223 20.5969 23.3131 20.5969C23.4032 20.5969 23.4933 20.5625 23.5621 20.4938C23.6996 20.3563 23.6996 20.1333 23.5621 19.9958L23.3746 19.8082Z" fill="#64B9FC"/>
<path d="M6.31559 6.83517L6.6727 6.47807C6.81024 6.34057 6.81024 6.11763 6.6727 5.98009C6.53521 5.8426 6.31226 5.8426 6.17472 5.98009L5.81761 6.3372L5.4605 5.98009C5.32301 5.84255 5.10007 5.8426 4.96253 5.98009C4.82499 6.11758 4.82499 6.34053 4.96253 6.47807L5.31964 6.83517L4.96253 7.19228C4.82499 7.32978 4.82499 7.55272 4.96253 7.69026C5.0313 7.75903 5.1214 7.79339 5.21149 7.79339C5.30159 7.79339 5.39174 7.75898 5.46046 7.69026L5.81757 7.33315L6.17468 7.69026C6.24345 7.75903 6.33355 7.79339 6.42364 7.79339C6.51374 7.79339 6.60388 7.75898 6.67261 7.69026C6.81015 7.55277 6.81015 7.32982 6.67261 7.19228L6.31559 6.83517Z" fill="#64B9FC"/>
<path d="M6.76846 4.26154C7.30074 4.26154 7.73224 3.83004 7.73224 3.29776C7.73224 2.76548 7.30074 2.33398 6.76846 2.33398C6.23618 2.33398 5.80469 2.76548 5.80469 3.29776C5.80469 3.83004 6.23618 4.26154 6.76846 4.26154Z" fill="#A8E7EF"/>
<path d="M7.73184 3.29767C7.73184 3.83014 7.30022 4.26176 6.76816 4.26176C6.58978 4.26176 6.4224 4.21332 6.2793 4.12833C6.65764 4.0411 6.93951 3.70245 6.93951 3.29767C6.93951 2.89335 6.65805 2.55419 6.27975 2.46701C6.42285 2.38243 6.58978 2.33398 6.76816 2.33398C7.30022 2.33398 7.73184 2.76561 7.73184 3.29767Z" fill="#70D9E6"/>
</svg>
