<svg width="28" height="28" viewBox="0 0 28 28" fill="none" xmlns="http://www.w3.org/2000/svg">
<path d="M11.613 6.6344L9.00443 4.02592C8.3155 3.32469 7.08513 3.32469 6.3839 4.02592L5.96545 4.45664C5.95056 4.47152 5.51037 4.90498 5.51037 4.92418C5.28882 5.15795 5.301 5.53936 5.53486 5.76083L9.87811 10.104C10.0996 10.3503 10.5178 10.3502 10.7395 10.104L11.613 9.23048C12.3148 8.55287 12.3576 7.35318 11.613 6.6344Z" fill="#1689FC"/>
<path d="M23.9539 19.0015L21.3455 16.3931C20.6566 15.6919 19.4385 15.6919 18.7495 16.3931L18.3189 16.8361L17.8759 17.2667C17.6299 17.5004 17.6299 17.8942 17.8759 18.1279L22.2315 22.4834C22.4441 22.7201 22.8491 22.7392 23.105 22.4834L23.5233 22.0528L23.9539 21.6099C24.68 20.8964 24.68 19.7152 23.9539 19.0015Z" fill="#136EF1"/>
<path d="M23.5233 22.0536L23.105 22.4842C19.7461 25.511 15.8211 24.785 13.6065 22.558L5.44716 14.3738C2.85095 11.79 2.85095 7.56983 5.44716 4.97379C5.45946 4.97379 5.55785 4.87532 5.55785 4.8631L5.96383 4.45703L11.1683 9.66147L10.9222 9.91989L10.7378 10.1044C10.344 10.5351 10.0241 10.8057 10.0241 11.4086C10.0241 11.79 10.1717 12.1346 10.4302 12.4052L12.4848 14.46L15.5749 17.575C16.1041 18.1041 17.0268 18.1041 17.556 17.575L17.8758 17.2674L18.3188 16.8368L23.5233 22.0536Z" fill="#17ACE8"/>
<path d="M18.3173 16.8358L23.5218 22.0526L23.1035 22.4832C19.7446 25.5099 15.8196 24.784 13.6051 22.557L9.01367 17.9409C9.01367 17.9286 9.01367 17.9286 9.01367 17.9286L12.4834 14.459L15.5735 17.574C16.1026 18.1031 17.0254 18.1031 17.5545 17.574L17.8744 17.2664L18.3173 16.8358Z" fill="#1689FC"/>
</svg>
