<svg width="20" height="20" viewBox="0 0 20 20" fill="none" xmlns="http://www.w3.org/2000/svg">
<path fill-rule="evenodd" clip-rule="evenodd" d="M8.23018 12.6719C5.02685 12.6719 2.29102 13.156 2.29102 15.096C2.29102 17.036 5.01018 17.5377 8.23018 17.5377C11.4343 17.5377 14.1693 17.0527 14.1693 15.1135C14.1693 13.1744 11.451 12.6719 8.23018 12.6719Z" stroke="white" stroke-width="1.5" stroke-linecap="round" stroke-linejoin="round"/>
<path fill-rule="evenodd" clip-rule="evenodd" d="M8.22969 9.90533C10.3322 9.90533 12.0364 8.20116 12.0364 6.09866C12.0364 3.99616 10.3322 2.29199 8.22969 2.29199C6.12802 2.29199 4.42385 3.99616 4.42385 6.09866C4.41635 8.19366 6.10802 9.89783 8.20385 9.90533H8.22969Z" stroke="white" stroke-width="1.5" stroke-linecap="round" stroke-linejoin="round"/>
<path d="M16.0026 7.22461V10.5663" stroke="white" stroke-width="1.5" stroke-linecap="round" stroke-linejoin="round"/>
<path d="M17.7072 8.89518H14.2988" stroke="white" stroke-width="1.5" stroke-linecap="round" stroke-linejoin="round"/>
</svg>
