<svg width="24" height="24" viewBox="0 0 24 24" fill="none" xmlns="http://www.w3.org/2000/svg">
<path d="M12 24C18.6274 24 24 18.6274 24 12C24 5.37258 18.6274 0 12 0C5.37258 0 0 5.37258 0 12C0 18.6274 5.37258 24 12 24Z" fill="#5282FF"/>
<path d="M12.932 17.9996V12.534H14.7742L15.0508 10.3941H12.932V9.03242C12.932 8.41367 13.1031 7.99414 13.9891 7.99414H15.1117V6.08633C14.9172 6.06055 14.2469 6.00195 13.4664 6.00195C11.8375 6.00195 10.7219 6.9957 10.7219 8.82148V10.3965H8.88672V12.5363H10.7219V17.9996H12.932Z" fill="white"/>
</svg>
