<svg width="24" height="24" viewBox="0 0 24 24" fill="none" xmlns="http://www.w3.org/2000/svg">
<path d="M23.7666 9.64978H22.8V9.59998H12V14.4H18.7818C17.7924 17.1942 15.1338 19.2 12 19.2C8.02379 19.2 4.79999 15.9762 4.79999 12C4.79999 8.02379 8.02379 4.79999 12 4.79999C13.8354 4.79999 15.5052 5.49239 16.7766 6.62339L20.1708 3.22919C18.0276 1.2318 15.1608 0 12 0C5.37299 0 0 5.37299 0 12C0 18.627 5.37299 24 12 24C18.627 24 24 18.627 24 12C24 11.1954 23.9172 10.41 23.7666 9.64978Z" fill="#FFC107"/>
<path d="M1.37891 6.41459L5.3215 9.30598C6.3883 6.66479 8.97189 4.79999 11.9953 4.79999C13.8307 4.79999 15.5005 5.49239 16.7719 6.62339L20.1661 3.22919C18.0229 1.2318 15.1561 0 11.9953 0C7.3861 0 3.3889 2.6022 1.37891 6.41459Z" fill="#FF3D00"/>
<path d="M11.9955 23.9992C15.0951 23.9992 17.9115 22.813 20.0409 20.884L16.3269 17.7412C15.1221 18.6538 13.6245 19.1992 11.9955 19.1992C8.87429 19.1992 6.22409 17.209 5.22569 14.4316L1.3125 17.4466C3.2985 21.3328 7.33169 23.9992 11.9955 23.9992Z" fill="#4CAF50"/>
<path d="M23.7666 9.64941H22.8V9.59961H12V14.3996H18.7818C18.3066 15.7418 17.4432 16.8992 16.3296 17.7422C16.3302 17.7416 16.3308 17.7416 16.3314 17.741L20.0454 20.8838C19.7826 21.1226 24 17.9996 24 11.9996C24 11.195 23.9172 10.4096 23.7666 9.64941Z" fill="#1976D2"/>
</svg>
